<svg xmlns="http://www.w3.org/2000/svg" viewBox="0 0 45 45" width="45" height="45">
	<style>
		tspan { white-space:pre }
		.shp0 { fill: #858585 } 
	</style>
	<path id="Shape 4" class="shp0" d="M28.56 36.5L25.18 36.5C24.87 36.5 24.61 36.76 24.61 37.07L24.61 40.49C24.61 40.8 24.87 41.06 25.18 41.06L28.56 41.06C28.87 41.06 29.12 40.8 29.12 40.49L29.12 37.07C29.12 36.76 28.87 36.5 28.56 36.5M27.99 39.92L25.74 39.92L25.74 37.64L27.99 37.64L27.99 39.92ZM39.82 36.5L36.44 36.5C36.13 36.5 35.88 36.76 35.88 37.07L35.88 40.49C35.88 40.8 36.13 41.06 36.44 41.06L39.82 41.06C40.13 41.06 40.39 40.8 40.39 40.49L40.39 37.07C40.39 36.76 40.13 36.5 39.82 36.5M39.26 39.92L37.01 39.92L37.01 37.64L39.26 37.64L39.26 39.92ZM44.33 43.34L43.76 43.34L43.76 28.53L44.33 28.53C44.64 28.53 44.89 28.28 44.89 27.96C44.89 27.65 44.64 27.39 44.33 27.39L43.76 27.39L43.76 25.12C43.76 24.49 43.26 23.98 42.64 23.98L22.36 23.98C21.74 23.98 21.23 24.49 21.23 25.12L21.23 27.39L20.67 27.39C20.36 27.39 20.11 27.65 20.11 27.96C20.11 28.28 20.36 28.53 20.67 28.53L21.23 28.53L21.23 43.34L20.67 43.34C20.36 43.34 20.11 43.59 20.11 43.9C20.11 44.22 20.36 44.47 20.67 44.47L44.33 44.47C44.64 44.47 44.89 44.22 44.89 43.9C44.89 43.59 44.64 43.34 44.33 43.34M33.63 43.34L31.37 43.34L31.37 37.64L33.63 37.64L33.63 43.34ZM42.64 43.34L34.75 43.34L34.75 37.07C34.75 36.76 34.5 36.5 34.19 36.5L30.81 36.5C30.5 36.5 30.25 36.76 30.25 37.07L30.25 43.34L22.36 43.34L22.36 31.16C22.77 31.64 23.37 31.95 24.05 31.95C24.73 31.95 25.33 31.64 25.74 31.16C26.15 31.64 26.75 31.95 27.43 31.95C28.11 31.95 28.71 31.64 29.12 31.16C29.53 31.64 30.13 31.95 30.81 31.95C31.49 31.95 32.09 31.64 32.5 31.16C32.91 31.64 33.51 31.95 34.19 31.95C34.87 31.95 35.47 31.64 35.88 31.16C36.29 31.64 36.89 31.95 37.57 31.95C38.25 31.95 38.85 31.64 39.26 31.16C39.67 31.64 40.27 31.95 40.95 31.95C41.62 31.95 42.23 31.64 42.64 31.16L42.64 43.34ZM22.92 29.67L22.92 28.53L25.18 28.53L25.18 29.67C25.18 30.3 24.67 30.81 24.05 30.81C23.43 30.81 22.92 30.3 22.92 29.67M26.3 29.67L26.3 28.53L28.56 28.53L28.56 29.67C28.56 30.3 28.05 30.81 27.43 30.81C26.81 30.81 26.3 30.3 26.3 29.67M29.68 29.67L29.68 28.53L31.94 28.53L31.94 29.67C31.94 30.3 31.43 30.81 30.81 30.81C30.19 30.81 29.68 30.3 29.68 29.67M33.06 29.67L33.06 28.53L35.32 28.53L35.32 29.67C35.32 30.3 34.81 30.81 34.19 30.81C33.57 30.81 33.06 30.3 33.06 29.67M36.44 29.67L36.44 28.53L38.7 28.53L38.7 29.67C38.7 30.3 38.19 30.81 37.57 30.81C36.95 30.81 36.44 30.3 36.44 29.67M39.82 29.67L39.82 28.53L42.07 28.53L42.07 29.67C42.07 30.3 41.57 30.81 40.95 30.81C40.33 30.81 39.82 30.3 39.82 29.67M42.64 27.39L22.36 27.39L22.36 25.12L42.64 25.12L42.64 27.39ZM13.73 23L19.67 23C20.21 23 20.66 22.55 20.66 22C20.66 21.45 20.21 21 19.67 21L13.73 21C13.18 21 12.74 21.45 12.74 22C12.74 22.55 13.18 23 13.73 23M13.73 29L21.65 29C22.19 29 22.63 28.55 22.63 28C22.63 27.45 22.19 27 21.65 27L13.73 27C13.18 27 12.74 27.45 12.74 28C12.74 28.55 13.18 29 13.73 29M21.44 34.71C21.37 34.46 21.36 34.21 21.41 33.96C21.42 33.7 21.5 33.47 21.63 33.25C21.68 33.16 21.74 33.08 21.79 33L13.73 33C13.18 33 12.74 33.45 12.74 34C12.74 34.55 13.18 35 13.73 35L21.55 35C21.51 34.91 21.47 34.81 21.44 34.71ZM34.51 7L26.59 7L26.59 5C26.59 3.9 25.7 3 24.61 3L20.66 3C20.66 1.9 19.77 1 18.68 1C17.59 1 16.7 1.9 16.7 3L12.74 3C11.65 3 10.76 3.9 10.76 5L10.76 7L2.85 7C1.76 7 0.87 7.9 0.87 9L0.87 43C0.87 44.1 1.76 45 2.85 45L23.33 45L23.33 43L2.85 43L2.85 15L34.51 15L34.51 24.54L36.48 24.54L36.48 9C36.48 7.9 35.6 7 34.51 7ZM12.74 5L24.61 5L24.61 9L12.74 9L12.74 5ZM34.51 13L2.85 13L2.85 9L10.76 9C10.76 10.1 11.65 11 12.74 11L24.61 11C25.7 11 26.59 10.1 26.59 9L34.51 9L34.51 13ZM11.06 19.66C10.78 19.37 10.32 19.37 10.04 19.66L7.52 22.2L6.52 21.2C6.24 20.91 5.79 20.91 5.51 21.2C5.23 21.48 5.23 21.94 5.51 22.23L6.9 23.64C6.93 23.68 6.95 23.73 6.99 23.77C7.14 23.92 7.33 23.98 7.52 23.98C7.71 23.98 7.9 23.92 8.05 23.77C8.09 23.73 8.11 23.68 8.14 23.64L11.06 20.68C11.34 20.4 11.34 19.94 11.06 19.66ZM11.06 25.66C10.78 25.37 10.32 25.37 10.04 25.66L7.52 28.2L6.52 27.2C6.24 26.91 5.79 26.91 5.51 27.2C5.23 27.48 5.23 27.94 5.51 28.23L6.9 29.64C6.93 29.68 6.95 29.73 6.99 29.77C7.14 29.92 7.33 29.98 7.52 29.98C7.71 29.98 7.9 29.92 8.05 29.77C8.09 29.73 8.11 29.68 8.14 29.64L11.06 26.68C11.34 26.4 11.34 25.94 11.06 25.66ZM11.06 31.66C10.78 31.37 10.32 31.37 10.04 31.66L7.52 34.2L6.52 33.2C6.24 32.91 5.79 32.91 5.51 33.2C5.23 33.48 5.23 33.94 5.51 34.23L6.9 35.64C6.93 35.68 6.95 35.73 6.99 35.77C7.14 35.92 7.33 35.98 7.52 35.98C7.71 35.98 7.9 35.92 8.05 35.77C8.09 35.73 8.11 35.68 8.14 35.64L11.06 32.68C11.34 32.4 11.34 31.94 11.06 31.66Z" />
</svg>