<svg xmlns="http://www.w3.org/2000/svg" viewBox="0 0 45 39" width="45" height="39">
	<style>
		tspan { white-space:pre }
		.shp0 { fill: #858585 } 
	</style>
	<path id="Shape 1" class="shp0" d="M45 20C45 19.6 44.76 19.27 44.43 19.1L44.43 19.1L37.93 16L44.43 12.9L44.43 12.9C44.76 12.74 45 12.4 45 12C45 11.6 44.76 11.27 44.43 11.1L44.43 11.1L23.43 1.1L23.43 1.1C23.3 1.04 23.15 1 23 1C22.85 1 22.7 1.04 22.57 1.1L22.57 1.1L1.57 11.1L1.57 11.1C1.24 11.27 1 11.6 1 12C1 12.4 1.24 12.74 1.57 12.9L1.57 12.9L8.07 16L1.57 19.1L1.57 19.1C1.24 19.27 1 19.6 1 20C1 20.4 1.24 20.74 1.57 20.9L1.57 20.9L8.07 24L1.57 27.1L1.57 27.1C1.24 27.27 1 27.6 1 28C1 28.4 1.24 28.74 1.57 28.9L1.57 28.9L22.57 38.9L22.57 38.9C22.7 38.96 22.85 39 23 39C23.15 39 23.3 38.96 23.43 38.9L23.43 38.9L44.43 28.9L44.43 28.9C44.76 28.74 45 28.4 45 28C45 27.6 44.76 27.27 44.43 27.1L44.43 27.1L37.93 24L44.43 20.9L44.43 20.9C44.76 20.74 45 20.4 45 20M4.33 12L23 3.11L41.67 12L23 20.89L4.33 12ZM41.67 28L23 36.89L4.33 28L10.4 25.11L22.57 30.9L22.57 30.9C22.7 30.96 22.85 31 23 31C23.15 31 23.3 30.96 23.43 30.9L23.43 30.9L35.6 25.11L41.67 28ZM23 28.89L4.33 20L10.4 17.11L22.57 22.9L22.57 22.9C22.7 22.96 22.85 23 23 23C23.15 23 23.3 22.96 23.43 22.9L23.43 22.9L35.6 17.11L41.67 20L23 28.89Z" />
</svg>