<?xml version="1.0" standalone="no"?>
<!DOCTYPE svg PUBLIC "-//W3C//DTD SVG 20010904//EN"
 "http://www.w3.org/TR/2001/REC-SVG-20010904/DTD/svg10.dtd">
<svg version="1.0" xmlns="http://www.w3.org/2000/svg"
 width="225.000000pt" height="224.000000pt" viewBox="0 0 225.000000 224.000000"
 preserveAspectRatio="xMidYMid meet">

<g transform="translate(0.000000,224.000000) scale(0.100000,-0.100000)"
fill="#e87a26" stroke="none">
<path d="M850 2227 c-19 -9 -38 -43 -78 -142 -93 -229 -430 -1090 -437 -1117
-6 -24 -2 -27 65 -54 43 -16 74 -24 80 -18 5 5 99 239 208 519 244 624 253
645 260 645 9 0 983 -247 1046 -265 54 -16 57 -19 51 -42 -18 -74 -313 -888
-407 -1123 -97 -244 -164 -357 -246 -415 -41 -28 -49 -30 -141 -30 -91 0 -100
2 -134 28 -64 48 -112 150 -124 257 -5 52 -9 60 -32 69 -14 5 -233 93 -485
195 -253 102 -463 183 -468 180 -11 -7 -10 -150 2 -213 14 -72 53 -152 106
-210 33 -37 72 -64 152 -104 151 -78 760 -353 807 -366 161 -42 336 -10 452
85 85 70 172 217 263 449 65 164 324 878 402 1107 60 179 62 189 48 215 -9 16
-28 34 -43 41 -22 11 -1185 295 -1292 316 -17 3 -41 0 -55 -7z"/>
<path d="M1049 1911 c-35 -35 -38 -77 -9 -114 65 -82 196 -8 156 88 -26 63
-98 75 -147 26z"/>
<path d="M1331 1814 c-33 -42 -24 -101 17 -123 33 -18 404 -131 429 -131 34 0
73 42 73 80 0 68 -14 75 -282 154 -182 54 -209 56 -237 20z"/>
<path d="M927 1650 c-74 -59 -16 -173 79 -155 44 8 69 39 69 87 0 75 -88 115
-148 68z"/>
<path d="M1210 1550 c-28 -28 -34 -63 -16 -98 14 -27 30 -35 138 -71 158 -52
295 -91 320 -91 56 0 90 98 49 139 -19 19 -125 55 -335 116 -106 30 -130 31
-156 5z"/>
<path d="M830 1440 c-17 -31 -11 -47 19 -60 29 -12 29 -13 35 -108 4 -54 9
-121 12 -150 l6 -53 -51 -46 c-44 -40 -51 -51 -51 -84 0 -37 3 -40 58 -67 63
-32 364 -152 380 -152 10 0 26 49 18 57 -2 3 -89 39 -192 81 -103 43 -187 81
-187 87 0 5 12 18 26 29 l26 19 118 -46 c165 -64 161 -63 213 -28 81 55 205
166 208 187 3 18 -30 33 -257 125 l-261 104 0 41 c0 41 -1 41 -55 62 -53 19
-56 19 -65 2z"/>
<path d="M750 820 c-57 -57 17 -150 85 -106 31 21 35 84 7 109 -25 23 -68 21
-92 -3z"/>
<path d="M1110 703 c-41 -14 -55 -87 -22 -116 25 -22 75 -21 95 1 45 50 -10
137 -73 115z"/>
</g>
</svg>
