<svg xmlns="http://www.w3.org/2000/svg" viewBox="0 0 43 45" width="43" height="45">
	<style>
		tspan { white-space:pre }
		.shp0 { fill: #858585 } 
	</style>
	<path id="Shape 3" class="shp0" d="M37.55 38.35C37.55 38.35 37.12 38.24 36.6 37.94L36.6 30.56C36.82 30.13 37.06 29.24 36.67 27.62C37.67 26.26 37.85 23.83 36.77 21.27C36.71 21.14 36.66 21.02 36.6 20.9L36.6 9C36.6 7.9 35.72 7 34.62 7L26.69 7L26.69 5C26.69 3.9 25.8 3 24.71 3L20.74 3C20.74 1.9 19.85 1 18.76 1C17.67 1 16.78 1.9 16.78 3L12.81 3C11.72 3 10.83 3.9 10.83 5L10.83 7L2.9 7C1.8 7 0.91 7.9 0.91 9L0.91 43C0.91 44.1 1.8 45 2.9 45L20.65 45L34.62 45L42.26 45C42.93 45 42.93 44.32 42.93 44.32C42.93 40.23 39.3 38.97 37.55 38.35ZM12.81 5L24.71 5L24.71 9L12.81 9L12.81 5ZM2.9 9L10.83 9C10.83 10.1 11.72 11 12.81 11L24.71 11C25.8 11 26.69 10.1 26.69 9L34.62 9L34.62 13L2.9 13L2.9 9ZM2.9 15L34.62 15L34.62 18.3C34.6 18.29 34.59 18.28 34.57 18.27C33.9 17.89 33.14 17.75 32.39 17.75C31.01 17.75 29.7 18.24 29.18 18.58C27.97 19.12 27.07 19.63 26.27 21L15.79 21C15.24 21 14.79 21.45 14.79 22C14.79 22.55 15.24 23 15.79 23L25.43 23C25.09 24.74 25.87 26.58 26.3 27.54C26.26 27.71 26.24 27.85 26.21 28L15.79 28C15.24 28 14.79 28.45 14.79 29C14.79 29.55 15.24 30 15.79 30L26.16 30C26.29 30.63 26.53 30.9 26.53 30.9C26.97 31.5 28.09 32.38 28.09 34.87C28.09 37.7 25.35 38.35 25.35 38.35C23.81 38.89 20.81 39.95 20.12 43L2.9 43L2.9 15ZM25.7 37C26.25 37 26.69 36.55 26.69 36C26.69 35.45 26.25 35 25.7 35L15.79 35C15.24 35 14.79 35.45 14.79 36C14.79 36.55 15.24 37 15.79 37L25.7 37ZM11.6 18.92C11.31 18.92 11.06 19.04 10.88 19.23L10.88 19.23L7.01 22.76L6.21 21.77C6.03 21.58 5.78 21.47 5.51 21.47C4.96 21.47 4.52 21.92 4.52 22.47C4.52 22.75 4.63 23 4.81 23.18L6.32 24.89C6.5 25.07 6.75 25.19 7.02 25.19C7.3 25.19 7.56 25.06 7.74 24.87L7.74 24.87L12.32 20.61L12.31 20.61C12.48 20.43 12.59 20.19 12.59 19.92C12.59 19.37 12.14 18.92 11.6 18.92ZM11.6 25.19C11.31 25.19 11.06 25.31 10.88 25.5L10.88 25.49L7.01 29.02L6.21 28.03C6.03 27.85 5.78 27.74 5.51 27.74C4.96 27.74 4.52 28.19 4.52 28.74C4.52 29.01 4.63 29.26 4.81 29.44L6.32 31.16C6.5 31.34 6.75 31.45 7.02 31.45C7.3 31.45 7.56 31.33 7.74 31.14L7.74 31.14L12.32 26.87L12.31 26.87C12.48 26.69 12.59 26.45 12.59 26.19C12.59 25.63 12.14 25.19 11.6 25.19ZM11.6 32.08C11.31 32.08 11.06 32.2 10.88 32.39L10.88 32.39L7.01 35.92L6.21 34.92C6.03 34.74 5.78 34.63 5.51 34.63C4.96 34.63 4.52 35.08 4.52 35.63C4.52 35.91 4.63 36.16 4.81 36.34L6.32 38.05C6.5 38.23 6.75 38.34 7.02 38.34C7.3 38.34 7.56 38.22 7.74 38.03L7.74 38.03L12.32 33.77L12.31 33.76C12.48 33.59 12.59 33.35 12.59 33.08C12.59 32.53 12.14 32.08 11.6 32.08Z" />
</svg>