<svg xmlns="http://www.w3.org/2000/svg" viewBox="0 0 33 45" width="33" height="45">
	<style>
		tspan { white-space:pre }
		.shp0 { fill: #858585 } 
	</style>
	<path id="Shape 2" class="shp0" d="M21 5L19 5L19 17L21 17L21 5ZM13 5L9 5L9 17L13 17L13 5ZM17 5L15 5L15 17L17 17L17 5ZM29 5L27 5L27 17L29 17L29 5ZM25 5L23 5L23 17L25 17L25 5ZM32 1L2 1C1.45 1 1 1.45 1 2L1 44C1 44.55 1.45 45 2 45C2.28 45 2.53 44.89 2.71 44.71L6 41.41L9.29 44.71C9.47 44.89 9.72 45 10 45C10.28 45 10.53 44.89 10.71 44.71L13.89 41.52L16.2 44.6L16.21 44.59C16.4 44.83 16.67 45 17 45C17.33 45 17.6 44.83 17.79 44.59L17.8 44.6L20.11 41.52L23.29 44.71C23.47 44.89 23.72 45 24 45C24.28 45 24.53 44.89 24.71 44.71L28 41.41L31.29 44.71C31.47 44.89 31.72 45 32 45C32.55 45 33 44.55 33 44L33 2C33 1.45 32.55 1 32 1M31 41.59L28.71 39.29C28.53 39.11 28.28 39 28 39C27.72 39 27.47 39.11 27.29 39.29L24 42.59L20.71 39.29C20.53 39.11 20.28 39 20 39C19.67 39 19.4 39.17 19.21 39.41L19.2 39.4L17 42.33L14.8 39.4L14.79 39.41C14.6 39.17 14.33 39 14 39C13.72 39 13.47 39.11 13.29 39.29L10 42.59L6.71 39.29C6.53 39.11 6.28 39 6 39C5.72 39 5.47 39.11 5.29 39.29L3 41.59L3 3L31 3L31 41.59ZM25 33L5 33L5 35L25 35L25 33ZM29 29L5 29L5 31L29 31L29 29ZM7 5L5 5L5 17L7 17L7 5ZM29 25L5 25L5 27L29 27L29 25ZM21 21L5 21L5 23L21 23L21 21Z" />
</svg>